# xmcd
#
# Track frame offsets:
#	150
#	10225
#	22937
#	35707
#	47350
#	57460
#	68857
#	79197
#	89840
#	102007
#	115090
#	127105
#	137902
#	150092
#	160312
#	172025
#	181815
#	192757
#	204707
#	215447
#	226487
#	236272
#	248165
#	257507
#	267410
#	277060
#
# Disc length: 3828 seconds
#
# Revision: 5
# Processed by: cddbd v1.5.1PL0 Copyright (c) Steve Scherf et al.
# Submitted via: EasyCDDAExtractor 7.5.0.1
#
DISCID=6c0ef21a
DTITLE=Wilf "Montana Slim" Carter - Montana Slim: A Prairie Legend [Bear Famil
DTITLE=y] - Disc 3
DYEAR=1993
DGENRE=Country
TTITLE0=No! No! Don't Ring Those Bells (1950)
TTITLE1=Give A Little, Take A Little (1950)
TTITLE2=Unfaithful One (1950)
TTITLE3=The Little Shirt My Mother Made For Me (1950)
TTITLE4=Guilty Conscience (1952)
TTITLE5=Take It Easy Blues (1950)
TTITLE6=My Heart's Closed For Repairs (1951)
TTITLE7=My Wife Is On A Diet (1951)
TTITLE8=Let's Go Back To The Bible (1951)
TTITLE9=She'll Be There (What A Friend We Have In Mother) (1951)
TTITLE10=I Wish There Were Only Three Days In The Year (1952)
TTITLE11=When That Love Bug Bites You (He'll Keep Gnawin', Gnawin', Gnawin') (
TTITLE11=1950)
TTITLE12=Just A Woman's Smile (1951)
TTITLE13=Rudolph, The Red Nosed Reindeer (1950)
TTITLE14=Apple, Cherry, Mince And Choc'late Cream (1950)
TTITLE15=Jolly Old St. Nicholas (1950)
TTITLE16=The KP Blues (1950)
TTITLE17=The Blue Canadian Rockies (1950)
TTITLE18=Dear Evalina (1950)
TTITLE19=My Oklahoma Rose (1952)
TTITLE20=What Cigarette Is Best (1952)
TTITLE21=Sick, Sober And Sorry (1951)
TTITLE22=Teardrops Don't Always Mean A Broken Heart (1951)
TTITLE23=Wha Hoppen! (1951)
TTITLE24=Punkinhead (The Little Bear) (1951)
TTITLE25=The Night Before Christmas In Texas That Is (1951)
EXTD=
EXTT0=
EXTT1=
EXTT2=
EXTT3=
EXTT4=
EXTT5=
EXTT6=
EXTT7=
EXTT8=
EXTT9=
EXTT10=
EXTT11=
EXTT12=
EXTT13=
EXTT14=
EXTT15=
EXTT16=
EXTT17=
EXTT18=
EXTT19=
EXTT20=
EXTT21=
EXTT22=
EXTT23=
EXTT24=
EXTT25=
PLAYORDER=
